<?xml version="1.0" encoding="UTF-8"?>
<svg id="Capa_1" xmlns="http://www.w3.org/2000/svg" version="1.1" viewBox="0 0 500 500">
  <!-- Generator: Adobe Illustrator 30.0.0, SVG Export Plug-In . SVG Version: 2.1.1 Build 123)  -->
  <path d="M228.58.83c186.98-13.06,324.12,170.67,251.76,345.48-78.08,188.63-340.89,207.3-445.44,31.62C-58.6,220.81,45.84,13.59,228.58.83ZM380.53,268.25l-135,135.54c-11.6,18.46,11.12,37.54,27.37,22.91l142.19-142.3c17.82-23.18,15.9-50.09-2.75-71.95-41.07-48.14-96.51-91.12-138.9-138.89-15.82-15.09-40.83,4.69-27.38,22.91l135.58,136.08H84.33c-6.93,0-14.2,11.65-14.03,18.41s7.22,17.29,14.03,17.29h296.2Z"/>
</svg>